<?xml version="1.0" encoding="utf-8"?>
<!-- Generator: Adobe Illustrator 24.3.0, SVG Export Plug-In . SVG Version: 6.00 Build 0)  -->
<svg version="1.1" id="Layer_1" xmlns="http://www.w3.org/2000/svg" xmlns:xlink="http://www.w3.org/1999/xlink" x="0px" y="0px"
	 viewBox="0 0 1920 1080" style="enable-background:new 0 0 1920 1080;" xml:space="preserve">
<style type="text/css">
	.st0{opacity:0.3;fill:#ABD5E6;}
	.st1{opacity:0.3;fill:#FFCE68;}
	.st2{opacity:0.1;fill:#1D262D;}
	.st3{fill:#215B74;}
	.st4{opacity:0.2;fill:#1D262D;}
	.st5{fill:#FFFFFF;}
	.st6{fill:#DC894E;}
	.st7{fill:#FFCE68;}
	.st8{opacity:0.2;clip-path:url(#XMLID_2_);fill:#CC2A3A;}
	.st9{fill:#ABD5E6;}
	.st10{fill:#23809B;}
	.st11{opacity:0.1;clip-path:url(#XMLID_3_);fill:#1D262D;}
	.st12{opacity:0.1;clip-path:url(#XMLID_4_);fill:#1D262D;}
	.st13{fill:#FFD1BB;}
	.st14{fill:#FFD555;}
	.st15{opacity:0.1;clip-path:url(#XMLID_5_);fill:#1D262D;}
	.st16{opacity:0.2;clip-path:url(#XMLID_6_);fill:#D15579;}
	.st17{fill:#798EC9;}
	.st18{opacity:0.43;clip-path:url(#XMLID_7_);fill:#FFFFFF;}
	.st19{clip-path:url(#XMLID_7_);fill:#215B74;}
	.st20{opacity:0.5;clip-path:url(#XMLID_7_);fill:#D15579;}
	.st21{opacity:0.2;clip-path:url(#XMLID_7_);fill:#D15579;}
	.st22{clip-path:url(#XMLID_8_);fill:#23809B;}
	.st23{fill:#FFAA4D;}
	.st24{fill:#27305C;}
	.st25{opacity:0.2;clip-path:url(#XMLID_9_);fill:#D15579;}
	.st26{fill:#FFA690;}
	.st27{fill:#0A303E;}
	.st28{fill:#E15C56;}
</style>
<g>
	<path class="st0" d="M998.46,475.34c-7.7,1.45-15.55-1.57-22.38-5.41c-9.51-5.34-18-12.32-27.24-18.12
		c-9.24-5.8-19.62-10.52-30.53-10.54c-10.91-0.02-22.36,5.59-26.66,15.62c-4.56,10.63-0.33,22.98-2.3,34.38
		c-3.2,18.48-21.94,31.35-25.06,49.84c-1.79,10.59,1.98,21.51,7.98,30.43c12.77,18.96,36.61,30.24,59.21,26.8
		c14.38-2.19,27.5-9.83,38.41-19.44s19.89-21.2,28.79-32.71"/>
	<path class="st1" d="M1005.03,608.63c-2.7-3.21-5.19-6.59-7.45-10.11c-2.17-3.38-4.16-6.97-4.96-10.91
		c-1.06-5.29,0.12-10.76,1.59-15.96c1.68-5.96,3.79-11.89,7.28-17s8.54-9.38,14.54-10.91c4.89-1.25,10.07-0.64,15.01-1.65
		c9.56-1.96,16.95-9.74,21.75-18.23c2.53-4.47,4.88-9.59,9.53-11.78c5.46-2.56,12.39,0.27,15.73,5.29s3.62,11.57,2.24,17.44
		c-1.37,5.87-4.23,11.27-6.81,16.71c-2.59,5.44-4.97,11.15-5.29,17.17c-0.53,9.93,4.6,19.68,3.19,29.52
		c-0.79,5.53-3.62,10.61-7.18,14.92c-2.95,3.58-6.49,6.76-10.67,8.76c-6.27,3-13.65,3.15-20.36,1.34
		c-6.71-1.81-12.79-5.47-18.24-9.78"/>
	<ellipse class="st2" cx="964.65" cy="635.47" rx="113.58" ry="6.41"/>
	<g>
		<g>
			<g>
				<rect x="934.01" y="470.44" class="st3" width="122.89" height="163.95"/>
				<rect x="941.53" y="481.49" class="st4" width="107.85" height="146.87"/>
				<rect x="941.53" y="478.98" class="st5" width="107.85" height="146.87"/>
				<polygon class="st6" points="933.47,480.65 933.47,469.9 944.21,469.9 				"/>
				<polygon class="st6" points="1057.44,480.65 1057.44,469.9 1046.7,469.9 				"/>
				<polygon class="st6" points="933.47,624.61 933.47,635.35 944.21,635.35 				"/>
				<polygon class="st6" points="1057.44,624.61 1057.44,635.35 1046.7,635.35 				"/>
			</g>
			<path class="st7" d="M995.46,474.48L995.46,474.48c-4.24,0-7.68,1.96-7.68-2.28v-0.65c0-4.24,3.44-7.68,7.68-7.68h0
				c4.24,0,7.68,3.44,7.68,7.68v0.65C1003.13,476.44,999.7,474.48,995.46,474.48z"/>
			<rect x="975.4" y="480.65" class="st4" width="40.1" height="3.61"/>
			<g>
				<defs>
					<rect id="XMLID_21_" x="974.31" y="468.55" width="42.29" height="14.22"/>
				</defs>
				<use xlink:href="#XMLID_21_"  style="overflow:visible;fill:#FFCE68;"/>
				<clipPath id="XMLID_2_">
					<use xlink:href="#XMLID_21_"  style="overflow:visible;"/>
				</clipPath>
				<rect x="970.09" y="476.36" class="st8" width="51.86" height="8.15"/>
			</g>
			<g>
				<g>
					<rect x="952.32" y="506.19" class="st9" width="14.76" height="14.76"/>
					<path class="st9" d="M968.64,522.51h-17.88v-17.88h17.88V522.51z M951.3,521.97h16.8v-16.8h-16.8V521.97z"/>
				</g>
				<g>
					<rect x="952.32" y="528.8" class="st9" width="14.76" height="14.76"/>
					<path class="st9" d="M968.64,545.12h-17.88v-17.88h17.88V545.12z M951.3,544.58h16.8v-16.8h-16.8V544.58z"/>
				</g>
				<g>
					<rect x="952.32" y="551.41" class="st9" width="14.76" height="14.76"/>
					<path class="st9" d="M968.64,567.73h-17.88v-17.88h17.88V567.73z M951.3,567.19h16.8v-16.8h-16.8V567.19z"/>
				</g>
				<path class="st10" d="M958.38,518.74l-8.52-8.43c-0.59-0.58-0.59-1.53-0.01-2.12c0.58-0.59,1.53-0.59,2.12-0.01l6.29,6.22
					l9.98-11.02c0.56-0.61,1.51-0.66,2.12-0.11c0.61,0.56,0.66,1.51,0.11,2.12L958.38,518.74z"/>
				<path class="st10" d="M958.38,541.52l-8.52-8.43c-0.59-0.58-0.59-1.53-0.01-2.12c0.58-0.59,1.53-0.59,2.12-0.01l6.29,6.22
					l9.98-11.02c0.56-0.61,1.51-0.66,2.12-0.11c0.61,0.56,0.66,1.51,0.11,2.12L958.38,541.52z"/>
				<path class="st10" d="M958.38,563.75l-8.52-8.43c-0.59-0.58-0.59-1.53-0.01-2.12c0.58-0.59,1.53-0.59,2.12-0.01l6.29,6.22
					l9.98-11.02c0.56-0.61,1.51-0.66,2.12-0.11c0.61,0.56,0.66,1.51,0.11,2.12L958.38,563.75z"/>
				<g>
					<rect x="952.32" y="574.02" class="st9" width="14.76" height="14.76"/>
					<path class="st9" d="M968.64,590.33h-17.88v-17.88h17.88V590.33z M951.3,589.79h16.8v-16.8h-16.8V589.79z"/>
				</g>
				<g>
					<rect x="952.32" y="596.62" class="st9" width="14.76" height="14.76"/>
					<path class="st9" d="M968.64,612.94h-17.88v-17.88h17.88V612.94z M951.3,612.4h16.8v-16.8h-16.8V612.4z"/>
				</g>
				<g>
					<rect x="973.98" y="508.41" class="st10" width="65.3" height="1.78"/>
					<rect x="973.98" y="512.68" class="st10" width="65.3" height="1.78"/>
					<rect x="973.98" y="516.96" class="st10" width="20.19" height="1.78"/>
				</g>
				<g>
					<rect x="973.98" y="530.73" class="st10" width="65.3" height="1.78"/>
					<rect x="973.98" y="535" class="st10" width="65.3" height="1.78"/>
					<rect x="973.98" y="539.28" class="st10" width="42.67" height="1.78"/>
				</g>
				<g>
					<rect x="973.98" y="553.05" class="st10" width="65.3" height="1.78"/>
					<rect x="973.98" y="557.33" class="st10" width="55.85" height="1.78"/>
					<rect x="973.98" y="561.6" class="st10" width="20.19" height="1.78"/>
				</g>
				<g>
					<rect x="973.98" y="575.37" class="st10" width="65.3" height="1.78"/>
					<rect x="973.98" y="579.65" class="st10" width="32.91" height="1.78"/>
				</g>
				<g>
					<rect x="973.98" y="597.7" class="st10" width="65.3" height="1.78"/>
					<rect x="973.98" y="601.97" class="st10" width="65.3" height="1.78"/>
					<rect x="973.98" y="606.25" class="st10" width="47.61" height="1.78"/>
				</g>
			</g>
			<rect x="964.51" y="490.24" class="st10" width="62.08" height="4.4"/>
			<path class="st5" d="M997.22,467.3c0,0.98-0.79,1.77-1.77,1.77c-0.98,0-1.77-0.79-1.77-1.77c0-0.98,0.79-1.77,1.77-1.77
				C996.43,465.53,997.22,466.32,997.22,467.3z"/>
		</g>
	</g>
	<g>
		<g>
			<defs>
				<path id="XMLID_23_" d="M871.05,626.71l-1.01,4.99c0,0-6.36,1.38-6.74,2.84c-0.38,1.46,13.35,0.46,13.35,0.46l1.46-8.28"/>
			</defs>
			<use xlink:href="#XMLID_23_"  style="overflow:visible;fill:#47648F;"/>
			<clipPath id="XMLID_3_">
				<use xlink:href="#XMLID_23_"  style="overflow:visible;"/>
			</clipPath>
			<path class="st11" d="M868.93,624.49c-0.41,0.31-0.59,0.86-0.54,1.38c0.06,0.51,0.32,0.98,0.64,1.38
				c0.81,0.99,2.01,1.58,3.22,1.97c1.16,0.36,2.36,0.56,3.57,0.59c1.51,0.03,3.1-0.23,4.27-1.18c1.17-0.95,1.76-2.72,1.01-4.03
				c-0.41-0.72-1.13-1.19-1.87-1.57c-1.32-0.68-2.75-1.14-4.22-1.35"/>
		</g>
		<g>
			<defs>
				<path id="XMLID_66_" d="M905.57,626.71l-0.16,4.99c0,0,6.36,1.38,6.74,2.84c0.38,1.46-13.35,0.46-13.35,0.46l-0.29-8.28"/>
			</defs>
			<use xlink:href="#XMLID_66_"  style="overflow:visible;fill:#47648F;"/>
			<clipPath id="XMLID_4_">
				<use xlink:href="#XMLID_66_"  style="overflow:visible;"/>
			</clipPath>
			<path class="st12" d="M898.79,624.06c-0.96,0.56-1.78,1.36-2.35,2.32c-0.3,0.51-0.54,1.08-0.56,1.68
				c-0.02,0.6,0.21,1.22,0.68,1.58c0.29,0.22,0.66,0.32,1.02,0.38c0.72,0.11,2.34,0.31,3.06,0.23c2.05-0.2,3.34-0.74,4.96-2.01
				c1.92-1.5,2.65-4.34,1.69-6.57"/>
		</g>
		<g>
			<path class="st13" d="M933.79,511.21c0,0-4.72-1.47-4.62-2.84c0.1-1.37,3.28-0.25,3.28-0.25s-1.77-6.51-1.01-7.04
				c0.76-0.53,1.91,3.54,1.91,3.54s0.22-3.97,1.25-3.9c1.03,0.07,0.83,3.26,0.83,3.26s1.15-2.53,2.15-2.11
				c1,0.42-0.65,3.18-0.65,3.18s2.54-1.44,2.94-0.75c0.4,0.69-1.6,2.99-1.6,2.99s2.47,2.33-0.51,6.8c-0.82-0.34-3.13-1.41-4.34-1.16
				L933.79,511.21z"/>
			<path class="st14" d="M903.17,530.99c0,0,21.35,1.89,29.51-18.82c5.83-0.88,5.83,3.24,5.83,3.24s-8.07,30.32-33.12,26.34"/>
			<g>
				<defs>
					<path id="XMLID_22_" d="M879.76,568.39c0,0-6.55,37.08-9.71,59.26c6.8,0.75,8.23,0.29,8.23,0.29l12.63-45.33c0,0,3.46,0,5.55,0
						c0.41,0.44,1.66,45.33,1.66,45.33s5.71,0.84,7.95-0.32c0,0,2.57-34.55,3.26-53.28L879.76,568.39z"/>
				</defs>
				<use xlink:href="#XMLID_22_"  style="overflow:visible;fill:#798EC9;"/>
				<clipPath id="XMLID_5_">
					<use xlink:href="#XMLID_22_"  style="overflow:visible;"/>
				</clipPath>
				<path class="st15" d="M866.64,568.76c9.24,7.09,21.15,10.62,32.77,9.7c11.61-0.92,22.82-6.27,30.84-14.73
					c-19.91-1.45-40.45-2.61-59.31,3.93"/>
			</g>
			<g>
				<defs>
					<path id="XMLID_65_" d="M897.85,530.17c0,0-7.18,0.41-9.17,2.33c-1.99,1.92-6.24,15.01-8.92,35.88
						c10.69,11.27,29.57,5.95,29.57,5.95s0.96-38.03-0.05-39.95C907.34,530.73,897.85,530.17,897.85,530.17z"/>
				</defs>
				<use xlink:href="#XMLID_65_"  style="overflow:visible;fill:#FFD555;"/>
				<clipPath id="XMLID_6_">
					<use xlink:href="#XMLID_65_"  style="overflow:visible;"/>
				</clipPath>
				<path class="st16" d="M888.46,568.8c11.09,0.89,20.4-4.73,24.41-7.84c0.79-0.61,1.89-0.69,2.65-1.33s1.29-1.65,1.09-2.63
					c-0.32-1.53-2.12-2.18-3.66-2.48c-7.33-1.4-14.9-0.87-22.15,0.73c-3.23,0.71-17.95,3.05-12.95,8.95
					C880,566.74,885.24,568.54,888.46,568.8z"/>
			</g>
			<path class="st17" d="M909.33,574.33"/>
		</g>
		<g>
			<g>
				<defs>
					<path id="XMLID_63_" d="M850.53,568.19L850.53,568.19c-0.95-3.31,0.96-6.76,4.27-7.71l64.97-18.62l3.43,11.98l-64.97,18.62
						C854.93,573.41,851.48,571.49,850.53,568.19z"/>
				</defs>
				<use xlink:href="#XMLID_63_"  style="overflow:visible;fill:#DD7E62;"/>
				<clipPath id="XMLID_7_">
					<use xlink:href="#XMLID_63_"  style="overflow:visible;"/>
				</clipPath>
				
					<rect x="899.99" y="548.37" transform="matrix(0.2756 0.9613 -0.9613 0.2756 1189.7244 -479.6632)" class="st18" width="26.23" height="2.32"/>
				
					<rect x="845.52" y="563.98" transform="matrix(0.2756 0.9613 -0.9613 0.2756 1165.2716 -415.9846)" class="st18" width="26.23" height="2.32"/>
				
					<rect x="835.75" y="559.3" transform="matrix(0.2756 0.9613 -0.9613 0.2756 1161.5791 -404.0388)" class="st19" width="26.23" height="18.74"/>
				
					<rect x="883.74" y="522.42" transform="matrix(0.2756 0.9613 -0.9613 0.2756 1188.9569 -445.4674)" class="st20" width="12.59" height="87.39"/>
				
					<rect x="878.71" y="504.85" transform="matrix(0.2756 0.9613 -0.9613 0.2756 1168.4116 -453.3557)" class="st21" width="12.59" height="87.39"/>
			</g>
			<g>
				<defs>
					<polygon id="XMLID_64_" points="919.77,541.86 931.35,545.02 923.2,553.83 					"/>
				</defs>
				<use xlink:href="#XMLID_64_"  style="overflow:visible;fill:#FFEAAA;"/>
				<clipPath id="XMLID_8_">
					<use xlink:href="#XMLID_64_"  style="overflow:visible;"/>
				</clipPath>
				
					<ellipse transform="matrix(0.9202 -0.3916 0.3916 0.9202 -138.4855 409.4149)" class="st22" cx="934.6" cy="544.26" rx="7.51" ry="7.5"/>
			</g>
		</g>
		<path class="st13" d="M887.25,560.44c0,0,3.55-0.18,5.13,0.49c1.59,0.67,2.36,1.07,2.36,1.07l3.17-0.91c0,0-0.77,4.18-4.56,4.48
			c-3.79,0.31-7.03-0.79-7.03-0.79L887.25,560.44z"/>
		<path class="st14" d="M893.75,530.73c0,0-22.39,1.38-24.28,21.15c-1.3,13.6,17.66,14.28,17.66,14.28l0.89-6.03
			c0,0-7.96-3.3-7.96-8.17c0-4.87,8.63-8.47,8.63-8.47L893.75,530.73z"/>
		<path class="st23" d="M898.11,529.84c-3.96,0-7.79,1.39-7.79,1.39l9.25,7.85l7.45-8.16C907.02,530.93,904.48,529.84,898.11,529.84
			z"/>
		<path class="st24" d="M893.02,524.29c0,0-3.35,0.25-4.51-0.81c-2.35-2.14-4.03-14.4-4.12-16.98c-0.09-2.58,2.98-6.22,6.54-6.24
			c0.51-3.79,2.63-2.62,2.63-2.62s-1-1.59,0.26-2.74c0.71,1.36,1.12,2.4,1.12,2.4s1.98-1.62,6.46-0.8c4.48,0.83,7.25-1.32,8.3,0.84
			c1.06,2.16,2.8,8.8-0.1,10.06C906.69,508.68,891.69,516.6,893.02,524.29z"/>
		<g>
			<defs>
				<polyline id="XMLID_24_" points="892.52,521.31 893.93,532.11 899.48,536.84 904.11,532.11 904.11,525.15 				"/>
			</defs>
			<use xlink:href="#XMLID_24_"  style="overflow:visible;fill:#FFD1BB;"/>
			<clipPath id="XMLID_9_">
				<use xlink:href="#XMLID_24_"  style="overflow:visible;"/>
			</clipPath>
			<path class="st25" d="M897.44,516.01c-1.34,0.03-2.53,0.98-3.15,2.16c-0.62,1.19-0.74,2.57-0.69,3.91
				c0.04,1.08,0.2,2.17,0.63,3.17c0.54,1.23,1.48,2.25,2.57,3.02c1.45,1.04,3.24,1.69,5.02,1.51c1.78-0.17,3.51-1.27,4.17-2.93
				c0.74-1.85,0.07-3.99-1.02-5.66c-1.26-1.92-3.15-3.52-5.4-3.97c-0.96-0.19-2.07-0.14-2.78,0.54"/>
		</g>
		<path class="st13" d="M894.58,502.45c-3.72,1.59-7.27,15.34-2.63,21.27c4.64,5.93,15.74,4.8,19.61,0.29
			C914.7,520.33,910.09,495.82,894.58,502.45z"/>
		<path class="st26" d="M905.6,510.73c-0.65,0.31,0.52,6.75,0.52,6.75c0.88,0.11,3.63-1.35,3.63-1.93
			C909.74,515.55,906.84,510.13,905.6,510.73z"/>
		<path class="st24" d="M887.35,516.53c0.06-1.08,0.98-1.92,1.97-2.36c0.99-0.44,2.53,2.08,3.61,2.02c1.76-0.09,3.19-0.95,3.39-1.67
			c0.14-0.51,0.02-6.46,0.77-7.31c1.27-1.45,3.46-1.53,5.38-1.51c1.93,0.01,4.13-0.11,5.34-1.6c0.28-0.34,0.49-0.75,0.55-1.19
			c0.09-0.69-0.21-1.39-0.62-1.95c-1.41-1.93-4.04-2.58-6.44-2.45c-3.89,0.22-7.6,2.18-10.12,5.15s-3.86,6.87-3.89,10.76"/>
		<path class="st13" d="M893.57,517.22c0,0,0.46-7.19-3.23-6.15c-3.69,1.04-2.82,8.27,1.38,8.13"/>
		<path class="st24" d="M899.52,510.53c-0.17,0.36,0.31,1.33,0.83,1.25c0.52-0.08,3.05-0.41,3.31-1c0.25-0.6-0.19-1.33-0.54-1.45
			C902.76,509.2,899.72,510.07,899.52,510.53z"/>
		<path class="st24" d="M907.45,508.59c-0.18,0.34,0.14,1.36,0.6,1.34c0.47-0.02,2.75-0.06,3.03-0.63c0.29-0.56-0.03-1.34-0.32-1.5
			C910.46,507.64,907.68,508.16,907.45,508.59z"/>
		<path class="st27" d="M902.81,514.77c0.2,0.09,0.41,0.06,0.6,0.01c0.29-0.08,0.6-0.24,0.68-0.65c0.07-0.34-0.05-0.76-0.21-1.11
			c-0.09-0.19-0.18-0.37-0.31-0.52c-0.35-0.42-0.86-0.4-1.13-0.01C902.11,512.99,902.15,514.48,902.81,514.77z"/>
		<path class="st27" d="M909.06,513.26c0.2,0.09,0.41,0.06,0.6,0.01c0.29-0.08,0.6-0.24,0.68-0.65c0.07-0.34-0.05-0.76-0.21-1.11
			c-0.09-0.19-0.18-0.37-0.31-0.52c-0.35-0.42-0.86-0.4-1.13-0.01C908.37,511.48,908.41,512.97,909.06,513.26z"/>
		<path class="st26" d="M892.51,514.19c-0.05-0.73-0.49-1.44-1.15-1.77c-0.46-0.23-1.05-0.27-1.48,0.03
			c-0.43,0.29-0.6,0.95-0.27,1.36c0.16,0.2,0.43,0.34,0.51,0.59c0.07,0.24-0.06,0.49-0.16,0.72c-0.22,0.48-0.28,1.11,0.08,1.49
			c0.22,0.23,0.57,0.32,0.88,0.24C891.85,516.58,892.58,515.08,892.51,514.19z"/>
		<path class="st13" d="M890.55,561c0,0,2.96-1.36,3.72-1.46c0.75-0.1,1.14,0.58,0.95,0.97c-0.19,0.39-2.31,1.65-2.31,1.65"/>
	</g>
	<g>
		<circle class="st28" cx="1069.4" cy="494.21" r="3.21"/>
		<path class="st3" d="M1066.55,460.81c0,1.69-1.37,3.06-3.06,3.06c-1.69,0-3.06-1.37-3.06-3.06c0-1.69,1.37-3.06,3.06-3.06
			C1065.18,457.75,1066.55,459.12,1066.55,460.81z"/>
		<path class="st7" d="M1038.58,445.49c0.93,0.93,0.93,2.43,0,3.36s-2.43,0.93-3.36,0s-0.93-2.43,0-3.36
			S1037.65,444.57,1038.58,445.49z"/>
		<circle class="st7" cx="1074.98" cy="564.39" r="2.38"/>
		<path class="st7" d="M1015.77,441.29c0,1.24-1.01,2.25-2.25,2.25s-2.25-1.01-2.25-2.25c0-1.24,1.01-2.25,2.25-2.25
			S1015.77,440.05,1015.77,441.29z"/>
		<path class="st7" d="M858.28,596.15c0,1.24-1.01,2.25-2.25,2.25c-1.24,0-2.25-1.01-2.25-2.25s1.01-2.25,2.25-2.25
			C857.27,593.9,858.28,594.91,858.28,596.15z"/>
		<path class="st10" d="M1032.01,461.9c0,0.6-0.49,1.09-1.09,1.09s-1.09-0.49-1.09-1.09c0-0.6,0.49-1.09,1.09-1.09
			S1032.01,461.3,1032.01,461.9z"/>
		<circle class="st10" cx="1061.56" cy="440.17" r="1.13"/>
		<circle class="st10" cx="1082.21" cy="509.61" r="1.13"/>
		<circle class="st6" cx="973.13" cy="449.45" r="2.28"/>
		<circle class="st10" cx="915.87" cy="476.12" r="2"/>
		<path class="st7" d="M917.87,456.49c0,1.49-1.21,2.69-2.69,2.69c-1.49,0-2.69-1.21-2.69-2.69s1.21-2.69,2.69-2.69
			C916.67,453.8,917.87,455,917.87,456.49z"/>
		<path class="st7" d="M878.11,485.04c0,1.43-1.16,2.59-2.59,2.59s-2.59-1.16-2.59-2.59c0-1.43,1.16-2.59,2.59-2.59
			S878.11,483.61,878.11,485.04z"/>
		<path class="st3" d="M904.11,477.2c0,0.85-0.69,1.54-1.54,1.54c-0.85,0-1.54-0.69-1.54-1.54c0-0.85,0.69-1.54,1.54-1.54
			C903.42,475.66,904.11,476.35,904.11,477.2z"/>
		<path class="st3" d="M870.94,584.75c0,0.85-0.69,1.54-1.54,1.54c-0.85,0-1.54-0.69-1.54-1.54c0-0.85,0.69-1.54,1.54-1.54
			C870.25,583.2,870.94,583.9,870.94,584.75z"/>
		<path class="st6" d="M879.76,459.87c0,1.17-0.95,2.12-2.12,2.12s-2.12-0.95-2.12-2.12c0-1.17,0.95-2.12,2.12-2.12
			S879.76,458.7,879.76,459.87z"/>
		<path class="st28" d="M857.83,517.93c0,1-0.81,1.81-1.81,1.81c-1,0-1.81-0.81-1.81-1.81c0-1,0.81-1.81,1.81-1.81
			C857.02,516.13,857.83,516.94,857.83,517.93z"/>
	</g>
</g>
</svg>
